<?xml version="1.0" encoding="UTF-8" standalone="no"?><!DOCTYPE svg PUBLIC "-//W3C//DTD SVG 1.1//EN" "http://www.w3.org/Graphics/SVG/1.1/DTD/svg11.dtd"><svg width="100%" height="100%" viewBox="0 0 2000 2000" version="1.1" xmlns="http://www.w3.org/2000/svg" xmlns:xlink="http://www.w3.org/1999/xlink" xml:space="preserve" xmlns:serif="http://www.serif.com/" style="fill-rule:evenodd;clip-rule:evenodd;stroke-linejoin:round;stroke-miterlimit:2;"><path id="surface1" d="M451.166,333.328c-32.537,-32.537 -85.29,-32.537 -117.827,0c-0.004,0.003 -0.008,0.007 -0.011,0.011c-32.537,32.537 -32.537,85.29 0,117.827c152.586,152.586 548.833,548.834 548.833,548.834c0,0 -396.247,396.248 -548.833,548.834c-32.537,32.537 -32.537,85.29 0,117.827c0.003,0.004 0.007,0.008 0.011,0.011c32.537,32.537 85.29,32.537 117.827,0c152.586,-152.586 548.834,-548.833 548.834,-548.833c0,0 396.248,396.247 548.834,548.833c32.537,32.537 85.29,32.537 117.827,0c0.004,-0.003 0.008,-0.007 0.011,-0.011c32.537,-32.537 32.537,-85.29 0,-117.827c-152.586,-152.586 -548.833,-548.834 -548.833,-548.834c0,0 396.247,-396.248 548.833,-548.834c32.537,-32.537 32.537,-85.29 0,-117.827c-0.003,-0.004 -0.007,-0.008 -0.011,-0.011c-32.537,-32.537 -85.29,-32.537 -117.827,0c-152.586,152.586 -548.834,548.833 -548.834,548.833c0,0 -396.248,-396.247 -548.834,-548.833Z" style="fill:#fff;fill-rule:nonzero;"/></svg>